<?xml version="1.0" encoding="UTF-8"?>
<svg width="128pt" height="128pt" version="1.1" viewBox="0 0 128 128" xmlns="http://www.w3.org/2000/svg">
 <g>
  <path d="m96.141 60.609v-4.4492l-13.527-3.8672-5.3477-27.434 7.5898-3.3203 0.085937-13.18-28.238-5.9062-27.984 13.254-4.668 2.0938 3.4258 89.445 0.015626 0.41797 9.0391 3.5586 34.055 14.324 22.762-19.57v-4.082l-5.4336-8.3086 1.0234-26.562zm-70.781-41.996 3.8516-1.7266 26.766-11.996 0.29297 14.184-9.4727 4.1992 8.082 37.242 14.84 4.875v3.8516l-7.1367 6.9219-1.2969 33.852 6.9375 10.254v2.0625l-31.203-12.289-8.2852-3.2656zm32.379 35.914-5.4414-28.055h21.039l4.2305 23.227z"/>
  <path d="m29.246 106.77-3.3984-88.289 3.3633-1.5938-3.8516 1.7266 3.375 88.164 8.2852 3.2656z"/>
 </g>
</svg>
