<?xml version="1.0" encoding="UTF-8"?>
<svg width="128pt" height="128pt" version="1.1" viewBox="0 0 128 128" xmlns="http://www.w3.org/2000/svg">
 <g fill="#1f1b2a">
  <path d="m99.297 0h-70.594c-3.2773 0.0039062-5.9297 2.6602-5.9336 5.9336v116.13c0.003907 3.2773 2.6562 5.9297 5.9336 5.9336h57.75c4.9805 0 9.7539-1.9766 13.277-5.5 3.5195-3.5195 5.5-8.2969 5.5-13.277v-103.29c-0.003907-3.2734-2.6562-5.9297-5.9336-5.9336zm0.14844 109.22c0 7.1641-5.8281 12.992-12.992 12.992h-57.75c-0.078125 0-0.14453-0.066407-0.14453-0.14844v-116.13c0-0.082032 0.066406-0.14453 0.14453-0.14453h70.594c0.082031 0 0.14844 0.0625 0.14844 0.14453z"/>
  <path d="m91.699 9.7305h-55.465c-1.5977 0-2.8906 1.2969-2.8906 2.8945v43.98c0 1.5977 1.293 2.8945 2.8906 2.8945h46.105c6.7539 0 12.25-5.4961 12.25-12.25l0.003906-34.625c0-1.5977-1.2969-2.8945-2.8945-2.8945zm-2.8945 37.516c-0.003907 3.5703-2.8945 6.4609-6.4648 6.4648h-43.211v-38.191h49.676z"/>
  <path d="m45.551 90.078v-5.3789h5.6992v-5.7852h-5.6992v-5.3789h-5.7852v5.3789h-5.0586v5.7852h5.0586v5.3789z"/>
  <path d="m52.559 100.36-6.4609 2.9219c-0.70703 0.31641-1.2578 0.89453-1.5312 1.6172-0.27344 0.71875-0.25 1.5195 0.070313 2.2227 0.31641 0.69922 0.90234 1.2461 1.6211 1.5156 0.72266 0.26953 1.5234 0.24219 2.2227-0.082031l6.4648-2.9258v0.003907c0.70313-0.3125 1.2539-0.89453 1.5273-1.6133 0.27344-0.72266 0.25-1.5234-0.066406-2.2227-0.31641-0.70312-0.90234-1.25-1.625-1.5195s-1.5234-0.24219-2.2227 0.082031z"/>
  <path d="m67.824 100.36-6.4648 2.9258 0.003906-0.003906c-0.70703 0.31641-1.2539 0.89453-1.5312 1.6172-0.27344 0.71875-0.25 1.5195 0.070313 2.2227 0.31641 0.69922 0.90234 1.2461 1.6211 1.5156 0.72266 0.26953 1.5234 0.24219 2.2227-0.082031l6.4648-2.9219c0.70312-0.3125 1.2539-0.89453 1.5312-1.6133 0.27344-0.72266 0.24609-1.5234-0.070313-2.2227-0.31641-0.70312-0.90234-1.25-1.625-1.5195-0.71875-0.26953-1.5195-0.24219-2.2188 0.082031z"/>
  <path d="m88.586 74.566c-1.8008 0-3.4258 1.082-4.1133 2.7461s-0.30859 3.5781 0.96484 4.8516c1.2734 1.2734 3.1875 1.6523 4.8516 0.96484 1.6641-0.69141 2.7461-2.3125 2.7461-4.1133-0.003906-2.457-1.9922-4.4453-4.4492-4.4492z"/>
  <path d="m77.621 81.77c-1.8008 0-3.4258 1.082-4.1133 2.7461s-0.30859 3.5781 0.96484 4.8516c1.2734 1.2734 3.1875 1.6523 4.8516 0.96484 1.6602-0.69141 2.7461-2.3125 2.7461-4.1133-0.003906-2.457-1.9922-4.4492-4.4492-4.4492z"/>
 </g>
</svg>
