<svg xmlns="http://www.w3.org/2000/svg" viewBox="0 0 1282.3 2488.0125000000003" x="0px" y="0px"><title>Gameboy</title><g data-name="Capa 2"><path d="M1549.29,4.5H451.54a92.38,92.38,0,0,0-92.28,92.28V1902.64a92.38,92.38,0,0,0,92.28,92.28h898a292,292,0,0,0,292-292V96.78A92.38,92.38,0,0,0,1549.29,4.5Zm2.28,1698.39c0,111.4-90.63,202-202,202h-898a2.28,2.28,0,0,1-2.28-2.28V96.78a2.28,2.28,0,0,1,2.28-2.28H1549.29a2.28,2.28,0,0,1,2.28,2.28Z" transform="translate(-359.26 -4.5)"/><path d="M1431.13,155.81H568.68a45,45,0,0,0-45,45V884.71a45,45,0,0,0,45,45h716.93c105,0,190.51-85.46,190.51-190.51V200.81A45,45,0,0,0,1431.13,155.81Zm-45,583.39a100.63,100.63,0,0,1-100.51,100.51H613.68V245.81h772.45Z" transform="translate(-359.26 -4.5)"/><polygon points="354.28 1400.71 354.28 1317.1 442.89 1317.1 442.89 1227.1 354.28 1227.1 354.28 1143.49 264.28 1143.49 264.28 1227.1 185.67 1227.1 185.67 1317.1 264.28 1317.1 264.28 1400.71 354.28 1400.71"/><path d="M822.5,1565.15,722,1610.62a45,45,0,1,0,37.09,82l100.51-45.47a45,45,0,1,0-37.09-82Z" transform="translate(-359.26 -4.5)"/><path d="M1059.9,1565.15l-100.51,45.47a45,45,0,1,0,37.09,82L1097,1647.15a45,45,0,1,0-37.09-82Z" transform="translate(-359.26 -4.5)"/><path d="M1382.71,1164a69.21,69.21,0,1,0,69.21,69.21A69.29,69.29,0,0,0,1382.71,1164Z" transform="translate(-359.26 -4.5)"/><path d="M1212.2,1276a69.21,69.21,0,1,0,69.21,69.21A69.29,69.29,0,0,0,1212.2,1276Z" transform="translate(-359.26 -4.5)"/></g><text x="0" y="2005.41" fill="#000000" font-size="5px" font-weight="bold" font-family="'Helvetica Neue', Helvetica, Arial-Unicode, Arial, Sans-serif">Created by Linker</text><text x="0" y="2010.41" fill="#000000" font-size="5px" font-weight="bold" font-family="'Helvetica Neue', Helvetica, Arial-Unicode, Arial, Sans-serif">from the Noun Project</text></svg>